<?xml version="1.0" encoding="UTF-8"?>
<svg xmlns="http://www.w3.org/2000/svg" viewBox="0 0 980 186" preserveAspectRatio="xMinYMin meet">
<rect x="1.5" y="1.5" width="977.0" height="183.0" rx="10" ry="10" fill="#353a40" stroke="#ffffff" stroke-width="1"/>
<rect x="2" y="2" width="976" height="42" rx="10" ry="10" fill="#000000"/>
<rect x="2" y="12" width="976" height="32" fill="#000000"/>
<text x="14" y="28" fill="#ffffff" font-family="system-ui,Segoe UI,Roboto,Helvetica,Arial" font-size="18" font-weight="600">Linguae</text>
<g>
  <rect x="2" y="44" width="976" height="28" rx="4" ry="4" fill="#969696"/>
  <text x="10" y="58" fill="#f0f0f0" font-family="system-ui,Segoe UI,Roboto,Helvetica,Arial" font-size="16" dominant-baseline="middle" pointer-events="none">awk</text>
  <rect x="2" y="44" width="976" height="28" fill="transparent" pointer-events="all">
    <title>awk: 310</title>
  </rect>
</g>
<g>
  <rect x="2" y="72" width="214" height="28" rx="4" ry="4" fill="#563d7c"/>
  <text x="10" y="86" fill="#f0f0f0" font-family="system-ui,Segoe UI,Roboto,Helvetica,Arial" font-size="16" dominant-baseline="middle" pointer-events="none">CSS</text>
  <rect x="2" y="72" width="976" height="28" fill="transparent" pointer-events="all">
    <title>CSS: 68</title>
  </rect>
</g>
<g>
  <rect x="2" y="100" width="88" height="28" rx="4" ry="4" fill="#9c9c9c"/>
  <text x="10" y="114" fill="#f0f0f0" font-family="system-ui,Segoe UI,Roboto,Helvetica,Arial" font-size="16" dominant-baseline="middle" pointer-events="none">Bourne Shell</text>
  <rect x="2" y="100" width="976" height="28" fill="transparent" pointer-events="all">
    <title>Bourne Shell: 28</title>
  </rect>
</g>
<g>
  <rect x="2" y="128" width="53" height="28" rx="4" ry="4" fill="#e34c26"/>
  <text x="10" y="142" fill="#f0f0f0" font-family="system-ui,Segoe UI,Roboto,Helvetica,Arial" font-size="16" dominant-baseline="middle" pointer-events="none">HTML</text>
  <rect x="2" y="128" width="976" height="28" fill="transparent" pointer-events="all">
    <title>HTML: 17</title>
  </rect>
</g>
<g>
  <rect x="2" y="156" width="9" height="28" rx="4" ry="4" fill="#083fa1"/>
  <text x="10" y="170" fill="#f0f0f0" font-family="system-ui,Segoe UI,Roboto,Helvetica,Arial" font-size="16" dominant-baseline="middle" pointer-events="none">Markdown</text>
  <rect x="2" y="156" width="976" height="28" fill="transparent" pointer-events="all">
    <title>Markdown: 3</title>
  </rect>
</g>
</svg>
